<?xml version="1.0" encoding="iso-8859-1"?>
<!-- Generator: Adobe Illustrator 19.0.0, SVG Export Plug-In . SVG Version: 6.00 Build 0)  -->
<svg xmlns="http://www.w3.org/2000/svg" xmlns:xlink="http://www.w3.org/1999/xlink" version="1.1" id="Capa_1" x="0px" y="0px" viewBox="0 0 490 490" style="enable-background:new 0 0 490 490;" xml:space="preserve" width="512px" height="512px">
<g id="Black_24_">
	<polygon points="444.108,189.852 421.569,99.998 390.668,99.998 367.163,188.336 347.793,99.998 329.418,99.998 321.195,99.998    303.264,99.998 283.511,189.852 260.971,99.998 230.085,99.998 206.566,188.336 187.195,99.998 168.805,99.998 160.613,99.998    142.651,99.998 122.898,189.852 100.373,99.998 69.473,99.998 45.968,188.336 26.582,99.998 0,99.998 30.701,228.608    58.861,228.608 84.387,132.461 110.02,228.608 137.567,228.608 164.671,117.01 191.314,228.608 219.474,228.608 245,132.461    270.633,228.608 298.18,228.608 325.268,117.056 351.897,228.608 380.056,228.608 405.582,132.461 431.215,228.608    458.762,228.608 490,99.998 463.862,99.998  " fill="#2980b9"/>
	<polygon points="194.178,305.982 131.642,368.319 153.263,390.002 215.753,327.711 240.222,352.348 266.483,255.65    169.616,281.252  " fill="#2980b9"/>
</g>
<g>
</g>
<g>
</g>
<g>
</g>
<g>
</g>
<g>
</g>
<g>
</g>
<g>
</g>
<g>
</g>
<g>
</g>
<g>
</g>
<g>
</g>
<g>
</g>
<g>
</g>
<g>
</g>
<g>
</g>
</svg>
