<?xml version="1.0" encoding="utf-8"?>
<!-- Generator: Adobe Illustrator 18.0.0, SVG Export Plug-In . SVG Version: 6.00 Build 0)  -->
<!DOCTYPE svg PUBLIC "-//W3C//DTD SVG 1.1//EN" "http://www.w3.org/Graphics/SVG/1.1/DTD/svg11.dtd">
<svg version="1.1"
	 id="svg3740" xmlns:cc="http://creativecommons.org/ns#" xmlns:dc="http://purl.org/dc/elements/1.1/" xmlns:svg="http://www.w3.org/2000/svg" xmlns:sodipodi="http://sodipodi.sourceforge.net/DTD/sodipodi-0.dtd" xmlns:rdf="http://www.w3.org/1999/02/22-rdf-syntax-ns#" xmlns:inkscape="http://www.inkscape.org/namespaces/inkscape" sodipodi:docname="New document 6" inkscape:version="0.48.5 r10040"
	 xmlns="http://www.w3.org/2000/svg" xmlns:xlink="http://www.w3.org/1999/xlink" x="0px" y="0px" viewBox="0 0 999.8 554.3"
	 enable-background="new 0 0 999.8 554.3" xml:space="preserve">
<sodipodi:namedview  borderopacity="1.0" bordercolor="#666666" inkscape:zoom="0.56533203" pagecolor="#ffffff" showgrid="false" inkscape:cy="261.45921" inkscape:cx="571.19413" id="base" fit-margin-top="0.4" fit-margin-left="0.4" inkscape:window-maximized="0" inkscape:window-y="-7" inkscape:window-x="881" inkscape:window-height="1024" inkscape:window-width="1032" inkscape:current-layer="layer1" inkscape:document-units="px" inkscape:pageshadow="2" inkscape:pageopacity="0.0" fit-margin-right="0.4" fit-margin-bottom="0.4">
	
		<inkscape:grid  type="xygrid" originy="-347.12179px" originx="2.4px" enabled="true" visible="true" empspacing="5" id="grid3759" snapvisiblegridlinesonly="true">
		</inkscape:grid>
</sodipodi:namedview>
<g id="layer1" transform="translate(2.4,-150.98349)" inkscape:label="Layer 1" inkscape:groupmode="layer">
	<path id="path3761" sodipodi:nodetypes="ccccccccccccc" inkscape:connector-curvature="0" fill="#FFFFFF" d="M-2,624l67.2-48.9
		c0,0,35.7,49.1,85.2,49.1c33.1,0,62.2-18,62.2-47c0-71.6-191.6-53-191.6-192.2c0-69,53-120.2,131.9-120.2
		c86.9,0,126.8,64.1,126.8,64.1l-64.2,46.5c0,0-25.5-30.6-61.1-30.6c-30.4,0-47.9,17.1-47.9,39.9c0,70.8,191.6,56.8,191.6,191
		c0,71.4-55.3,129-147.1,129C51.8,704.8-2,624-2,624z"/>
	<path id="path3763" sodipodi:nodetypes="cccccccc" inkscape:connector-curvature="0" fill="#FFFFFF" d="M306.7,273h92.1
		l111.4,298.8L621.3,273h92.6L555.7,695.9h-91.9L306.7,273z"/>
	<path id="path3765" sodipodi:nodetypes="ccccccccccccc" inkscape:connector-curvature="0" fill="#FFFFFF" d="M756.2,151.4h85.7
		v121.2h130.8l-30.9,83.7h-100v204.6c0,28.8,22,62,57,62c25.1,0,44.4-17,44.4-17l53.7,61c0,0-33.9,38-99.2,38
		C809.2,704.8,756,629,756,565.2L756.2,151.4z"/>
</g>
</svg>
